<svg width="94" height="56" viewBox="0 0 94 56" fill="none" xmlns="http://www.w3.org/2000/svg">
<path d="M0 7.27991C0 6.48758 0.496124 6 1.36435 6H14.6977C15.5659 6 16 6.36569 16 7.15801V8.19413C16 8.98644 15.5659 9.35213 14.6977 9.35213H3.84497V17.6411H12.3411C13.2093 17.6411 13.6434 18.0067 13.6434 18.799V19.7743C13.6434 20.5666 13.2093 20.9323 12.3411 20.9323H3.84497V29.7088H14.6357C15.5039 29.7088 16 30.0745 16 30.8669V31.842C16 32.6343 15.5039 33 14.6357 33H1.30233C0.496124 33 0 32.6343 0 31.842V7.27991Z" fill="white"/>
<path d="M24.2435 6H25.6114C26.4818 6 26.8549 6.42471 26.8549 7.21348V19.1057L36.5546 6.84944C36.9898 6.30336 37.3629 6 38.1712 6H39.9743C40.7826 6 41.0314 6.9101 40.5961 7.45617L32.3888 17.5888L40.8447 31.5439C41.2178 32.1506 40.9071 33 40.0364 33H38.4198C37.5494 33 37.1141 32.5753 36.8032 31.9686L30.026 20.9259L26.9171 25.1731V31.6652C26.9171 32.454 26.4818 33 25.6114 33H24.3057C23.4974 33 23 32.454 23 31.6652V7.1528C23.0622 6.36404 23.4974 6 24.2435 6Z" fill="white"/>
<path d="M50.6043 9.28381H45.2841C44.428 9.28381 44 8.91892 44 8.1284V7.15541C44 6.36488 44.428 6 45.2841 6H59.7159C60.572 6 61 6.36488 61 7.15541V8.06758C61 8.85812 60.572 9.22299 59.7159 9.22299H54.3346V31.723C54.3346 32.5135 53.9064 33 53.1114 33H51.8273C50.9712 33 50.5431 32.5135 50.5431 31.723L50.6043 9.28381Z" fill="white"/>
<path d="M65 13.8094C65 8.30043 69.0767 6 74.094 6C79.1114 6 83 8.36097 83 13.8699V31.7286C83 32.5156 82.4981 33 81.6201 33H80.3031C79.425 33 79.0487 32.5156 79.0487 31.7286V24.222H68.9513V31.7286C68.9513 32.5156 68.5123 33 67.6341 33H66.317C65.439 33 65 32.5156 65 31.7286V13.8094ZM69.014 20.8923H79.1114V14.1726C79.1114 10.2376 76.6654 9.32958 73.9687 9.32958C71.1463 9.32958 69.014 10.1771 69.014 14.1726V20.8923Z" fill="white"/>
<path d="M89 0C86.2151 0 84 2.21518 84 4.99999C84 7.7848 86.2151 10 89 10C91.7849 10 94 7.7848 94 4.99999C94 2.21518 91.7849 0 89 0ZM89 7.34177C87.6709 7.34177 86.6582 6.26582 86.6582 4.99999C86.6582 3.73418 87.7342 2.65823 89 2.65823C90.2658 2.65823 91.3418 3.73418 91.3418 4.99999C91.3418 6.26582 90.3291 7.34177 89 7.34177Z" fill="white"/>
<path d="M0 41.8251V41.0932H5.4717V41.8251H3.17758V47.9068H2.29412V41.8251H0ZM10.3462 47.9068V41.0932H12.8113C13.3813 41.0932 13.8491 41.1841 14.2149 41.366C14.5806 41.5456 14.8513 41.7929 15.027 42.1079C15.2028 42.4228 15.2907 42.781 15.2907 43.1824C15.2907 43.5839 15.2028 43.9399 15.027 44.2505C14.8513 44.5609 14.5818 44.805 14.2184 44.9823C13.8551 45.1575 13.3908 45.2453 12.8255 45.2453H10.8307V44.5H12.7971C13.1865 44.5 13.5 44.4468 13.7375 44.3403C13.9774 44.2338 14.1507 44.0829 14.2576 43.8878C14.3668 43.6904 14.4215 43.4552 14.4215 43.1824C14.4215 42.9097 14.3668 42.6712 14.2576 42.4671C14.1484 42.2632 13.9738 42.1057 13.7339 41.9948C13.4941 41.8816 13.177 41.8251 12.7828 41.8251H11.2296V47.9068H10.3462ZM13.7803 44.846L15.5757 47.9068H14.5497L12.7828 44.846H13.7803ZM20.5731 47.9068H19.6468L22.3257 41.0932H23.2376L25.9165 47.9068H24.9902L22.8102 42.1711H22.7532L20.5731 47.9068ZM20.915 45.2453H24.6483V45.9771H20.915V45.2453ZM30.1773 41.0932L32.3433 46.8289H32.4287L34.5947 41.0932H35.5208L32.842 47.9068H31.93L29.2511 41.0932H30.1773ZM40.1682 47.9068V41.0932H44.5713V41.8251H41.0516V44.1273H44.3433V44.8593H41.0516V47.1748H44.6281V47.9068H40.1682ZM49.6746 47.9068V41.0932H50.5581V47.1748H53.9494V47.9068H49.6746ZM59.7118 41.0932V47.9068H58.8283V41.0932H59.7118ZM70.7793 41.0932V47.9068H69.9243L65.9488 42.5571H65.8776V47.9068H64.9942V41.0932H65.849L69.8389 46.4562H69.9101V41.0932H70.7793ZM81.0453 43.2224C80.9669 42.9983 80.8636 42.7977 80.7354 42.6202C80.6095 42.4406 80.4587 42.2876 80.2829 42.1611C80.1096 42.0346 79.9125 41.9383 79.6916 41.8716C79.4707 41.8051 79.2285 41.7718 78.965 41.7718C78.5326 41.7718 78.1397 41.8761 77.7858 42.0846C77.432 42.293 77.1505 42.6003 76.9415 43.0062C76.7325 43.412 76.628 43.9099 76.628 44.5C76.628 45.0899 76.7338 45.5879 76.9451 45.9938C77.1565 46.3997 77.4427 46.7068 77.8037 46.9154C78.1646 47.1239 78.5707 47.228 79.022 47.228C79.44 47.228 79.808 47.1449 80.1263 46.9785C80.4468 46.81 80.6962 46.5727 80.8743 46.2666C81.0549 45.9582 81.145 45.5957 81.145 45.1786L81.4158 45.2319H79.2215V44.5H82V45.2319C82 45.793 81.8718 46.281 81.6153 46.6957C81.3612 47.1106 81.0097 47.4321 80.5608 47.6605C80.1144 47.8868 79.6015 48 79.022 48C78.376 48 77.8083 47.8579 77.3192 47.574C76.8323 47.2902 76.4523 46.8865 76.1792 46.3631C75.9084 45.8396 75.7731 45.2186 75.7731 44.5C75.7731 43.961 75.8502 43.4763 76.0047 43.0461C76.1614 42.6136 76.3822 42.2454 76.6673 41.9416C76.9522 41.6377 77.2894 41.4047 77.6789 41.2428C78.0683 41.081 78.497 41 78.965 41C79.3497 41 79.7083 41.0543 80.0407 41.163C80.3756 41.2695 80.6737 41.4214 80.9348 41.6188C81.1985 41.814 81.4182 42.0481 81.5939 42.3208C81.7696 42.5914 81.8908 42.892 81.9572 43.2224H81.0453Z" fill="white"/>
</svg>
